<?xml version="1.0" encoding="utf-8"?>
<!-- Generator: Adobe Illustrator 24.0.3, SVG Export Plug-In . SVG Version: 6.00 Build 0)  -->
<svg version="1.1" id="圖層_1" xmlns="http://www.w3.org/2000/svg" xmlns:xlink="http://www.w3.org/1999/xlink" x="0px" y="0px"
	 viewBox="0 0 91.5 85" style="enable-background:new 0 0 91.5 85;" xml:space="preserve">
<style type="text/css">
	.st0{fill:#E71D1F;}
	.st1{fill:#054192;}
	.st2{fill:#029A4F;}
</style>
<g>
	<path class="st0" d="M26.3,15.2c0,0,7.5,2.6,22,3.4v52.6c0,0-6.2,0.3-11.2-1.7l-3.8-36.3c0,0-3,0-5-1L26.3,15.2z"/>
	<path class="st1" d="M73.8,15.2c0,0-7.5,2.6-22,3.4v52.6c0,0,6.2,0.3,11.2-1.7l3.8-36.3c0,0,3,0,5-1L73.8,15.2z"/>
	<g>
		<path class="st2" d="M49.6,84.4c-27.1,0-49.1-18.9-49.1-42.1s22-42.1,49.1-42.1c7,0,13.8,1.2,20.1,3.7c1.3,0.5,1.9,1.9,1.4,3.2
			c-0.5,1.3-1.9,1.9-3.2,1.4C62.2,6.4,56,5.3,49.6,5.3C25.3,5.3,5.5,21.9,5.5,42.4s19.8,37.1,44.1,37.1c13.2,0,25.6-5,34-13.4
			l-6.5-1.4c-1.3-0.3-2.2-1.6-1.9-3s1.6-2.2,3-1.9l10.6,2.3c0.8,0.2,1.5,0.8,1.8,1.6c0.3,0.8,0.1,1.7-0.4,2.4
			C81.1,77.6,65.9,84.4,49.6,84.4z"/>
	</g>
</g>
</svg>
