<?xml version="1.0" encoding="utf-8"?>
<!-- Generator: Adobe Illustrator 24.0.3, SVG Export Plug-In . SVG Version: 6.00 Build 0)  -->
<svg version="1.1" id="圖層_1" xmlns="http://www.w3.org/2000/svg" xmlns:xlink="http://www.w3.org/1999/xlink" x="0px" y="0px"
	 viewBox="0 0 363 274" style="enable-background:new 0 0 363 274;" xml:space="preserve">
<style type="text/css">
	.st0{fill:#EDEDED;}
</style>
<path class="st0" d="M354.3,37.7c0.2,0,0.4-0.2,0.4-0.4V26.4c0-0.2-0.2-0.4-0.4-0.4h-0.4v-4.5c0-0.1,0-0.2-0.1-0.3l-1.7-1.9
	l-0.4-11.6c0-0.2-0.2-0.4-0.4-0.4c0,0,0,0,0,0l-48.9,0.4c-0.2,0-0.4,0.2-0.4,0.4v9.5l-181.2-4l-0.3-1.5c0-0.2-0.2-0.3-0.4-0.3
	l-13.4,0.2L20.9,17c-0.2,0-0.4,0.2-0.4,0.4v0.1H9.7c-0.2,0-0.4,0.2-0.4,0.4v3.6H5.2c-0.2,0-1.9,0.1-1.9,2.9v6.8c0,0.1,0,0.2,0.1,0.3
	l0.1,0.1c1,1.2,2.3,2,3.8,2.5v9.3c0,0.2,0.2,0.4,0.4,0.4h3.8l-0.4,196.4v0.4c0,0.2,0.1,0.3,0.3,0.4l101.5,27.6c0,0,0.1,0,0.1,0
	c0.1,0,0.2,0,0.3-0.1c0.1-0.1,0.1-0.2,0.1-0.4l225.3-43.2c0.1,0,0.2-0.1,0.3-0.2c0-0.1,0-0.3-0.1-0.4l-3.9-5.1v-3.1l15.2-2.9
	c0.2,0,0.3-0.2,0.3-0.4V210l3.1-0.6c0.2,0,0.3-0.2,0.3-0.4v-8h0.4c0.2,0,0.4-0.2,0.4-0.4v-10.9c0-0.2-0.2-0.4-0.4-0.4h-0.4v-67
	c0.1-0.1,0.2-0.2,0.2-0.3v-10.3c0-0.1-0.1-0.3-0.2-0.3V37.7H354.3z M348.7,210.4v1.3l-12.4,2.5v-1L348.7,210.4z M15.3,34.1v7.3
	c0,0.1,0,0.6-0.6,0.6H9.1v-7.5c0.4,0,0.8,0,1.1,0C12.9,34.6,14.5,34.3,15.3,34.1z M20.4,33.5h-3.3v-9.1c0-1.1-0.7-2-1-2.4
	c-0.1-0.1-0.1-0.1-0.1-0.1c0,0,0-0.1-0.1-0.1l-0.1-0.1c-0.1-0.1-0.2-0.1-0.3-0.1h-4.3v-2.2h9.2V33.5z M15.3,161.1l1.1-3.6l79.7,11.6
	l-3.6,3.3L15.3,161.1z M15.1,162.8l77.1,11.4L91.8,253l-76.8-19.1V162.8z M92.3,254.9l2.1,1.8l-37.1-10.6L92.3,254.9z M97.9,169.8
	l-1,87l-3.4-3l0.4-80.3L97.9,169.8z M80.5,125.1V136l-20.1-2l-0.2-10.3L80.5,125.1z M82.4,136.3c0,0-0.1-0.1-0.1-0.1v-10.9l4.2,0.3
	l-0.2,27.3l-4.1-0.5v-14.8l0.2-1C82.5,136.5,82.5,136.3,82.4,136.3z M88.3,121.7v-9.9l10.3-1.7l-0.1,9.4L88.3,121.7z M55.2,123.2
	v26.5l-4.2-1.4v-25.4L55.2,123.2z M63.4,149.1l-6.5,0.5v-26.3l1.7,0.1l0.2,11.7c0,0.2,0.1,0.3,0.3,0.4l4.4,0.5V149.1z M64.2,108.7
	l22.3,3.1V122l-22.2-1.5L64.2,108.7z M53.8,120.2h8.8v1.5c0,0.2,0.2,0.4,0.3,0.4l24.1,1.7l11.4-2.4v1.5l-8.6,1.2l-37.7-2.7
	L53.8,120.2z M72.7,104.9V87.3l4.5-1.1v19.2L72.7,104.9z M98.7,104.7l-10.5,1.9l-9.3-1V69.2l0.4-0.1v17.5c0,0.1,0.1,0.2,0.2,0.3
	l1.7,1.1v14.8c0,0.2,0.2,0.4,0.4,0.4h17.2L98.7,104.7z M88.2,108.2c0,0,0.1,0,0.1,0l10.4-1.8v1.9l-11,1.8l-23.4-3.2L64,94.3l6.9-0.8
	v12.5c0,0.2,0.1,0.4,0.3,0.4L88.2,108.2z M98.2,151.3l-10.1,1.3l0.1-26.9l1.6,0.1l8.6-1.1L98.2,151.3z M98.8,101.4H82.9V87.3
	c0-0.1-0.1-0.2-0.2-0.3L81,85.9V67.5c0-0.1,0-0.2-0.1-0.3c-0.1-0.1-0.2-0.1-0.3-0.1l-3.1,0.6c-0.2,0-0.3,0.2-0.3,0.4v16.2l-5.9,1.5
	c-0.2,0-0.3,0.2-0.3,0.4v5.6c0,0,0,0-0.1,0l-8.3,0.9c-0.2,0-0.3,0.2-0.3,0.4l0.4,25.3h-9.2c-0.1,0-0.2,0-0.2,0.1l-3.9,2.7
	c-0.1,0.1-0.2,0.2-0.2,0.3v20.4l-19.5,1.2l-0.1-113l70-2.6L98.8,101.4z M29.8,144.9l19.5-1.2v5.7c0,0.2,0.1,0.3,0.3,0.4l5.6,1.8
	l-25.4-3.6L29.8,144.9z M57,151.6v-0.3l8-0.6c0.2,0,0.3-0.2,0.3-0.4v-14.2l15.2,1.5v15.9c0,0.2,0.1,0.3,0.3,0.4l5.5,0.7
	c0,0,0.1,0,0.1,0l11.7-1.5l-0.1,4.5l-41.1-5.9C57,151.7,57,151.7,57,151.6z M22,35.1v-4.7l5.8-0.2l0.2,117.6l-8.6-1.2l0.6-111.1h1.7
	C21.8,35.5,22,35.3,22,35.1z M15.3,24.5v7.9c-0.2,0.1-1.7,0.6-5.1,0.6c-3.1,0-4.7-1.6-5.1-2.1v-6.4c0-0.7,0.1-1,0.2-1.1h9.6
	C15.1,23.7,15.3,24.2,15.3,24.5z M352.1,191.1v8.1h-3v-8.1H352.1z M350.3,20.2L352,22v4h-4.7c-0.2,0-0.4,0.2-0.4,0.4v10.9
	c0,0.2,0.2,0.4,0.4,0.4h4.7v73.7h-4.6c-0.2,0-0.4,0.2-0.4,0.4V122c0,0.2,0.2,0.4,0.4,0.4h4.7v67h-4.4c-0.2,0-0.4,0.2-0.4,0.4v10.9
	c0,0.2,0.2,0.4,0.4,0.4h4.4v6.9l-16,3.4L336,20L350.3,20.2z M352.1,27.8v8.1h-3.3v-8.1H352.1z M352.1,113.1v7.5h-3.3v-7.5H352.1z
	 M349.9,9.2l0.4,9.1L327.2,18V9.4L349.9,9.2z M303.9,17.8V9.6l21.5-0.2v8.7L303.9,17.8z M244.6,20.1v-1.7l57.8,1.3l25.2,0.3v2.2
	L244.6,20.1z M112.2,200.4l-0.5,63.9l-3.7-8.1v-97.7c0,0,0,0,0.1,0l4.4-0.5l-0.3,41.8c-0.1,0.1-0.1,0.3-0.1,0.3
	C112.1,200.2,112.2,200.3,112.2,200.4z M118.9,141.8v6.2l0.1,7.7l-10.9,1.1V13.9l11-0.2l0.2,1L118.9,141.8z M123.2,58.1l-0.1-27.2
	l116.7,1.7c0.1,0,0.2,0,0.3-0.1l0.1,24.9L123.2,58.1z M239.8,30.8l-116.7-1.7V18.6l117,3l0,9.4C240,30.9,239.9,30.8,239.8,30.8z
	 M123.2,62.1V60l117-0.8l0,2.3L123.2,62.1z M240.1,63.3l0.3,65.5l-117.1,8.3l-0.1-73.2L240.1,63.3z M123.9,231
	c0.1,0,0.2-0.1,0.2-0.2l0-0.1c0.4,0.3,0.9,0.6,1.4,0.8v23.1c-2.1,0.6-4.4,1-6.5,1.2l-0.3-26.7l4.8,2
	C123.7,231.1,123.8,231.1,123.9,231z M120.7,147.6v-5l52.1-3.9v5.7L120.7,147.6z M120.7,153.8v-4.4l52-3.2v3.1c0,0.1,0,0.2,0.1,0.3
	l0.4,0.4L120.7,153.8z M244.8,62.7l71-0.2l-0.3,33.5L245,98.1L244.8,62.7z M244.8,61v-2.8l73.2-0.6l-0.2,3L244.8,61z M316.1,32.3
	v23.7l-71.4,0.5l-0.1-24.1H316.1z M326.1,97.9l-81.2,2.8l0.1-0.8l80.4-2.5c0.2,0,0.4-0.2,0.4-0.4l0.3-73.1l0.5,0L326.1,97.9z
	 M323.9,95.6l-6.6,0.2l0.3-33.4h1.5c0.2,0,0.4-0.2,0.4-0.4l0.3-5.8c0-0.1,0-0.2-0.1-0.3c-0.1-0.1-0.2-0.1-0.3-0.1h-1.6V30.9
	c0-0.2-0.2-0.4-0.4-0.4h-72.8l-0.1-8.8l79.7,2.1L323.9,95.6z M176.1,144.4v-5.9l10.8-0.8l-0.1,6L176.1,144.4z M245,102.6l71.5-2.4
	v35.8l-127.9,7.7l0.1-6l55.6-4.1h0.5c0.1,0,0.2,0,0.3-0.1s0.1-0.2,0.1-0.3L245,102.6z M314.9,139.5c-0.1-0.1-0.2-0.1-0.3-0.1
	l-3.9,0.4l-122.2,9l0.1-3.5l128.8-7.8l5,1.4L314.9,139.5z M186.9,145.4l-0.1,2.4l-10.3,1.9l-0.4,0v-3.7L186.9,145.4z M293.9,218.3
	l-43.7,8.4l0.9-1.2L293.9,218.3z M175.8,157.8l-55.7,5.3l-4.6-2.9l131.6-12.5l2.1,2.9L175.8,157.8z M119.4,192h0.2
	c-2,1.5-4,3.6-5.4,5.3l0.1-35.9l4.5,2.8l0.3,27.4C119,191.8,119.2,192,119.4,192z M326.5,144.7l0.8,66.2L252,223.6l-0.6-71.4
	L326.5,144.7z M326.5,143l-75.3,7.4l-2.1-2.9l61.7-5.8l15.6-1.2V143z M142.5,227.8c3.2-3.5,5.3-8.4,5.8-13.7
	c0.4-5.4-0.9-10.5-3.6-14.4c-2.1-3.1-4.8-5.2-7.8-6.2l0.3-0.9c0.1-0.2,0-0.4-0.2-0.5c-0.4-0.1-7.9-2-12.6-2c-1.1,0-2.3,0.4-3.5,1.1
	l-0.3-26.4l55.6-5.3l73.7-7.3l0.6,71.5l0,0.1l-122.9,20.6v-12.1c1.1,0.4,2.1,0.6,3.2,0.6h1C135.7,232.9,139.4,231.1,142.5,227.8z
	 M120.4,157.3c0.2,0,0.3-0.2,0.3-0.4v-1.4l54.1-4l0.1,0.1c0.1,0.1,0.2,0.1,0.3,0.1l1.6-0.3l53.7-3.9l-116.2,11v-0.7L120.4,157.3z
	 M117.3,255.8c-1.1,0-2.4-0.2-3.7-0.4l0.2-28.3l3.5,1.4c0,0-0.1,0-0.1,0.1c-0.1,0.1-0.1,0.2-0.1,0.3L117.3,255.8z M113.9,224.9
	l0.2-24.8c2.3-3.1,6.9-8.3,10.1-8.3c2.3,0,5.3,0.5,7.7,0.9c-3.7,0.2-7.2,2-10.1,5c-3.2,3.5-5.3,8.4-5.8,13.7
	c-0.4,5.4,0.9,10.5,3.6,14.4c0.5,0.7,1,1.4,1.6,2L113.9,224.9z M113.5,257.2c1.3,0.3,2.7,0.4,4.3,0.4c3.3,0,6.2-0.7,7.6-1.1v7.5
	l-12,2.3L113.5,257.2z M117.7,211.7c0.4-5,2.3-9.5,5.3-12.7c2.7-2.9,6.1-4.5,9.5-4.5l0.9,0c3.8,0.3,7.2,2.5,9.6,6.1
	c2.5,3.8,3.6,8.5,3.2,13.4c-0.4,5-2.3,9.5-5.3,12.7c-3,3.2-6.7,4.8-10.5,4.5c-1.2-0.1-2.3-0.3-3.4-0.8c0-0.2-0.2-0.3-0.4-0.3h-0.2
	c-2.2-1-4.1-2.7-5.6-5C118.4,221.3,117.3,216.6,117.7,211.7z M127.2,246.2l121.4-20.4l-1,1.3l-9.9,1.9l-110.5,18.5V246.2z
	 M242.9,19.7l-1.6,0.1h-0.5l-119.2-3.1c-0.1,0-0.2,0-0.3,0.1c-0.1,0.1-0.1,0.2-0.1,0.3l0.2,121.3c0,0.1,0,0.2,0.1,0.3
	c0.1,0.1,0.2,0.1,0.3,0.1l119.9-8.6c0.2,0,0.3-0.2,0.3-0.4l-0.4-108.3h1.2l0.6,110l-122.7,9.2l0.4-125.3l121.9,2.7V19.7z
	 M333.4,219.8l2.9,3.7l-209.1,40.1v-14.3L238,230.8l10.1-2c0.1,0.1,0.4,0.1,0.5,0l0,0l80.3-15.4c0.1,0,0.2-0.1,0.2-0.2
	s0.1-0.2,0.1-0.3l-0.2-0.8l-0.8-71.7l2-0.2c0.2,0,0.3-0.2,0.3-0.3s-0.1-0.3-0.3-0.4l-11.9-3.4v-36l9.3-0.3c0.2,0,0.4-0.2,0.4-0.4
	l0.3-76h0.7c0.2,0,0.4-0.2,0.4-0.4v-3.1l5,0.1l0.2,194.5l-0.9,0.1c-0.2,0-0.3,0.2-0.3,0.4v4.6C333.3,219.7,333.4,219.8,333.4,219.8z
	 M17.1,41.4v-6.1h1.1l-0.6,112.3c0,0.2,0.1,0.3,0.3,0.4l80.2,11.5l-0.1,8.2l-82.1-12l-0.4-0.1c-0.2,0-0.4,0.1-0.4,0.3l-1.6,5.3
	c0,0,0,0.1,0,0.1v73.7c0,0.2,0.1,0.3,0.3,0.4l0.4,0.1c0,0.1,0,0.1,0,0.2c0,0.1,0.1,0.2,0.2,0.2l83.8,23.9c0.1,0,0.2,0,0.3-0.1
	c0.1-0.1,0.1-0.2,0.2-0.3l2.7-232.7v-0.5c0-0.1,0-0.2-0.1-0.3c-0.1-0.1-0.2-0.1-0.3-0.1l-79,2.9v-10l84.2-4.8v242.5
	c0,0.1,0,0.1,0,0.2l4.3,9.5l-97.7-26.5l0.4-195.7h1.4C16.4,43.8,17.1,42.4,17.1,41.4z"/>
</svg>
